<?xml version="1.0" encoding="utf-8"?>
<!-- Generated by IcoMoon.io -->
<!DOCTYPE svg PUBLIC "-//W3C//DTD SVG 1.1//EN" "http://www.w3.org/Graphics/SVG/1.1/DTD/svg11.dtd">
<svg version="1.1" xmlns="http://www.w3.org/2000/svg" xmlns:xlink="http://www.w3.org/1999/xlink" width="512" height="512" viewBox="0 0 512 512">
<g>
</g>
	<path d="M312.505 96.195c-33.474-12.103-77.865-74.68-77.865-74.68s4.229 54.036-44.4 77.66c-78.817 27.228-135.414 102.093-135.414 190.157 0 111.084 90.071 201.165 201.165 201.165 111.104 0 201.175-90.082 201.175-201.165 0.010-91.515-61.082-168.714-144.661-193.137zM101.058 188.048c-6.635-39.946 86.078-80.825 86.078-80.825 47.995-17.613 52.736-62.751 52.736-62.751 18.555 35.175-21.873 51.353-21.873 51.353 18.094 10.414-22.784 42.291-22.784 42.291-76.094 61.819-94.157 49.93-94.157 49.93zM231.27 442.214l7.875-8.458c1.802 1.7 45.117 40.755 112.24-2.683l6.247 9.728c-74.885 48.527-125.911 1.874-126.362 1.413zM271.933 410.532c0.215-0.379 20.757-37.223 63.437-20.459 0 0 12.36 5.325 12.595 22.518h-11.582c0-6.574-4.567-10.885-6.011-12.022-31.468-12.718-47.596 14.377-48.281 15.503v0l-10.158-5.54zM385.351 403.005c0 0-23.962-21.238-34.959-35.656 0 0-22.64-20.551-41.82-8.223 0 0-78.838 61.031-126.137 48.681 0 0-58.993-15.76-36.352-74.055 0 0 30.874-73.329 117.924-28.764l41.134 25.334c0 0 22.62 23.327 56.258-6.175 0 0 55.501-54.118 74.701-5.468-0.010 0 4.813 97.392-50.75 84.327z" fill="#000000" />
	<path d="M329.954 400.24c0 0 0.185 0.154 0.42 0.327 0.256 0.103 0.481 0.185 0.778 0.256l-1.198-0.584z" fill="#000000" />
</svg>
